<svg width="20" height="19" viewBox="0 0 20 19" fill="none" xmlns="http://www.w3.org/2000/svg">
<path d="M18.172 1.84907C17.1103 0.787078 15.7027 0.141398 14.2052 0.0294528C12.7077 -0.0824924 11.2198 0.346733 10.012 1.23907C8.73965 0.292709 7.15599 -0.136417 5.57991 0.038109C4.00384 0.212635 2.55243 0.977849 1.51797 2.17966C0.483501 3.38146 -0.0571834 4.93059 0.00479541 6.51509C0.0667742 8.09958 0.726812 9.60174 1.85199 10.7191L9.30199 18.1691C9.39496 18.2628 9.50556 18.3372 9.62742 18.388C9.74928 18.4387 9.87998 18.4649 10.012 18.4649C10.144 18.4649 10.2747 18.4387 10.3966 18.388C10.5184 18.3372 10.629 18.2628 10.722 18.1691L18.172 10.7191C18.7546 10.1368 19.2169 9.44541 19.5322 8.68444C19.8476 7.92346 20.0099 7.1078 20.0099 6.28407C20.0099 5.46034 19.8476 4.64468 19.5322 3.88371C19.2169 3.12273 18.7546 2.43135 18.172 1.84907Z" fill="black"/>
</svg>
